solid OpenSCAD_Model
  facet normal -1 0 0
    outer loop
      vertex 40.0161 55 11.95
      vertex 40.0161 65 15
      vertex 40.0161 65 11.95
    endloop
  endfacet
  facet normal -1 -0 0
    outer loop
      vertex 40.0161 65 15
      vertex 40.0161 55 11.95
      vertex 40.0161 55 15
    endloop
  endfacet
  facet normal -1 0 0
    outer loop
      vertex 40.0161 55 5
      vertex 40.0161 65 6.95
      vertex 40.0161 65 5
    endloop
  endfacet
  facet normal -1 -0 0
    outer loop
      vertex 40.0161 65 6.95
      vertex 40.0161 55 5
      vertex 40.0161 55 6.95
    endloop
  endfacet
  facet normal -0 0 1
    outer loop
      vertex 40.0161 65 15
      vertex 50.0161 55 15
      vertex 50.0161 65 15
    endloop
  endfacet
  facet normal 0 0 1
    outer loop
      vertex 50.0161 55 15
      vertex 40.0161 65 15
      vertex 40.0161 55 15
    endloop
  endfacet
  facet normal 1 -0 0
    outer loop
      vertex 50.0161 55 15
      vertex 50.0161 65 5
      vertex 50.0161 65 15
    endloop
  endfacet
  facet normal 1 0 0
    outer loop
      vertex 50.0161 65 5
      vertex 50.0161 55 15
      vertex 50.0161 55 5
    endloop
  endfacet
  facet normal 0 0 1
    outer loop
      vertex 51.0161 66 5
      vertex 50.0161 65 5
      vertex 51.0161 54 5
    endloop
  endfacet
  facet normal 0 0 1
    outer loop
      vertex 51.0161 66 5
      vertex 48.0161 65 5
      vertex 50.0161 65 5
    endloop
  endfacet
  facet normal 0 0 1
    outer loop
      vertex 48.0161 65 5
      vertex 42.0161 65 5
      vertex 48.0161 55 5
    endloop
  endfacet
  facet normal 0 0 1
    outer loop
      vertex 51.0161 66 5
      vertex 42.0161 65 5
      vertex 48.0161 65 5
    endloop
  endfacet
  facet normal -0 0 1
    outer loop
      vertex 39.0161 66 5
      vertex 42.0161 65 5
      vertex 51.0161 66 5
    endloop
  endfacet
  facet normal 0 0 1
    outer loop
      vertex 40.0161 65 5
      vertex 39.0161 66 5
      vertex 40.0161 55 5
    endloop
  endfacet
  facet normal 0 0 1
    outer loop
      vertex 42.0161 65 5
      vertex 39.0161 66 5
      vertex 40.0161 65 5
    endloop
  endfacet
  facet normal -0 0 1
    outer loop
      vertex 50.0161 55 5
      vertex 51.0161 54 5
      vertex 50.0161 65 5
    endloop
  endfacet
  facet normal -0 0 1
    outer loop
      vertex 48.0161 55 5
      vertex 51.0161 54 5
      vertex 50.0161 55 5
    endloop
  endfacet
  facet normal 0 0 1
    outer loop
      vertex 42.0161 55 5
      vertex 48.0161 55 5
      vertex 42.0161 65 5
    endloop
  endfacet
  facet normal -0 0 1
    outer loop
      vertex 42.0161 55 5
      vertex 51.0161 54 5
      vertex 48.0161 55 5
    endloop
  endfacet
  facet normal 0 0 1
    outer loop
      vertex 39.0161 54 5
      vertex 42.0161 55 5
      vertex 40.0161 55 5
    endloop
  endfacet
  facet normal 0 0 1
    outer loop
      vertex 42.0161 55 5
      vertex 39.0161 54 5
      vertex 51.0161 54 5
    endloop
  endfacet
  facet normal 0 0 1
    outer loop
      vertex 39.0161 54 5
      vertex 40.0161 55 5
      vertex 39.0161 66 5
    endloop
  endfacet
  facet normal 0 -1 0
    outer loop
      vertex 40.0161 55 15
      vertex 42.0161 55 13.25
      vertex 50.0161 55 15
    endloop
  endfacet
  facet normal 0 -1 0
    outer loop
      vertex 40.0161 55 11.95
      vertex 42.0161 55 13.25
      vertex 40.0161 55 15
    endloop
  endfacet
  facet normal 0 -1 -0
    outer loop
      vertex 42.0161 55 13.25
      vertex 40.0161 55 11.95
      vertex 42.0161 55 11.95
    endloop
  endfacet
  facet normal 0 -1 0
    outer loop
      vertex 48.0161 55 13.25
      vertex 50.0161 55 15
      vertex 42.0161 55 13.25
    endloop
  endfacet
  facet normal 0 -1 0
    outer loop
      vertex 50.0161 55 5
      vertex 48.0161 55 13.25
      vertex 48.0161 55 5
    endloop
  endfacet
  facet normal 0 -1 0
    outer loop
      vertex 48.0161 55 13.25
      vertex 50.0161 55 5
      vertex 50.0161 55 15
    endloop
  endfacet
  facet normal 0 -1 0
    outer loop
      vertex 40.0161 55 5
      vertex 42.0161 55 6.95
      vertex 40.0161 55 6.95
    endloop
  endfacet
  facet normal 0 -1 -0
    outer loop
      vertex 42.0161 55 6.95
      vertex 40.0161 55 5
      vertex 42.0161 55 5
    endloop
  endfacet
  facet normal 0 1 0
    outer loop
      vertex 50.0161 65 15
      vertex 48.0161 65 13.25
      vertex 40.0161 65 15
    endloop
  endfacet
  facet normal 0 1 -0
    outer loop
      vertex 50.0161 65 5
      vertex 48.0161 65 13.25
      vertex 50.0161 65 15
    endloop
  endfacet
  facet normal 0 1 0
    outer loop
      vertex 48.0161 65 13.25
      vertex 50.0161 65 5
      vertex 48.0161 65 5
    endloop
  endfacet
  facet normal 0 1 -0
    outer loop
      vertex 42.0161 65 13.25
      vertex 40.0161 65 15
      vertex 48.0161 65 13.25
    endloop
  endfacet
  facet normal 0 1 0
    outer loop
      vertex 40.0161 65 11.95
      vertex 42.0161 65 13.25
      vertex 42.0161 65 11.95
    endloop
  endfacet
  facet normal 0 1 0
    outer loop
      vertex 42.0161 65 13.25
      vertex 40.0161 65 11.95
      vertex 40.0161 65 15
    endloop
  endfacet
  facet normal 0 1 -0
    outer loop
      vertex 42.0161 65 5
      vertex 40.0161 65 6.95
      vertex 42.0161 65 6.95
    endloop
  endfacet
  facet normal 0 1 0
    outer loop
      vertex 40.0161 65 6.95
      vertex 42.0161 65 5
      vertex 40.0161 65 5
    endloop
  endfacet
  facet normal 1 -0 0
    outer loop
      vertex 42.0161 55 6.95
      vertex 42.0161 65 5
      vertex 42.0161 65 6.95
    endloop
  endfacet
  facet normal 1 0 0
    outer loop
      vertex 42.0161 65 5
      vertex 42.0161 55 6.95
      vertex 42.0161 55 5
    endloop
  endfacet
  facet normal 1 -0 0
    outer loop
      vertex 42.0161 55 13.25
      vertex 42.0161 65 11.95
      vertex 42.0161 65 13.25
    endloop
  endfacet
  facet normal 1 0 0
    outer loop
      vertex 42.0161 65 11.95
      vertex 42.0161 55 13.25
      vertex 42.0161 55 11.95
    endloop
  endfacet
  facet normal 0 0 -1
    outer loop
      vertex 42.0161 55 13.25
      vertex 48.0161 65 13.25
      vertex 48.0161 55 13.25
    endloop
  endfacet
  facet normal -0 0 -1
    outer loop
      vertex 48.0161 65 13.25
      vertex 42.0161 55 13.25
      vertex 42.0161 65 13.25
    endloop
  endfacet
  facet normal -1 0 0
    outer loop
      vertex 48.0161 55 5
      vertex 48.0161 65 13.25
      vertex 48.0161 65 5
    endloop
  endfacet
  facet normal -1 -0 0
    outer loop
      vertex 48.0161 65 13.25
      vertex 48.0161 55 5
      vertex 48.0161 55 13.25
    endloop
  endfacet
  facet normal 0 0 -1
    outer loop
      vertex 40.0161 55 11.95
      vertex 42.0161 65 11.95
      vertex 42.0161 55 11.95
    endloop
  endfacet
  facet normal -0 0 -1
    outer loop
      vertex 42.0161 65 11.95
      vertex 40.0161 55 11.95
      vertex 40.0161 65 11.95
    endloop
  endfacet
  facet normal -0 0 1
    outer loop
      vertex 40.0161 65 6.95
      vertex 42.0161 55 6.95
      vertex 42.0161 65 6.95
    endloop
  endfacet
  facet normal 0 0 1
    outer loop
      vertex 42.0161 55 6.95
      vertex 40.0161 65 6.95
      vertex 40.0161 55 6.95
    endloop
  endfacet
  facet normal -1 0 0
    outer loop
      vertex 39.0161 54 4
      vertex 39.0161 66 5
      vertex 39.0161 66 4
    endloop
  endfacet
  facet normal -1 -0 0
    outer loop
      vertex 39.0161 66 5
      vertex 39.0161 54 4
      vertex 39.0161 54 5
    endloop
  endfacet
  facet normal 1 -0 0
    outer loop
      vertex 51.0161 54 5
      vertex 51.0161 66 4
      vertex 51.0161 66 5
    endloop
  endfacet
  facet normal 1 0 0
    outer loop
      vertex 51.0161 66 4
      vertex 51.0161 54 5
      vertex 51.0161 54 4
    endloop
  endfacet
  facet normal 0 0 -1
    outer loop
      vertex 39.0161 54 4
      vertex 51.0161 66 4
      vertex 51.0161 54 4
    endloop
  endfacet
  facet normal -0 0 -1
    outer loop
      vertex 51.0161 66 4
      vertex 39.0161 54 4
      vertex 39.0161 66 4
    endloop
  endfacet
  facet normal 0 -1 0
    outer loop
      vertex 39.0161 54 4
      vertex 51.0161 54 5
      vertex 39.0161 54 5
    endloop
  endfacet
  facet normal 0 -1 -0
    outer loop
      vertex 51.0161 54 5
      vertex 39.0161 54 4
      vertex 51.0161 54 4
    endloop
  endfacet
  facet normal 0 1 -0
    outer loop
      vertex 51.0161 66 4
      vertex 39.0161 66 5
      vertex 51.0161 66 5
    endloop
  endfacet
  facet normal 0 1 0
    outer loop
      vertex 39.0161 66 5
      vertex 51.0161 66 4
      vertex 39.0161 66 4
    endloop
  endfacet
endsolid OpenSCAD_Model
